<svg width="160" height="34" viewBox="0 0 160 34" fill="none" xmlns="http://www.w3.org/2000/svg">
<path d="M0 33.5091V0H22.2194V5.84119H6.97175V13.8258H21.0763V19.667H6.97175V27.668H22.2838V33.5091H0Z" fill="white"/>
<path d="M43.0421 16.9836V22.514H28.0037V16.9836H43.0421Z" fill="white"/>
<path d="M62.0413 8.37729V13.6131H47.1479V8.37729H62.0413ZM50.5291 2.35611H57.3881V25.7863C57.3881 26.4299 57.4847 26.9317 57.6779 27.2916C57.8711 27.6407 58.1395 27.8861 58.483 28.0279C58.8372 28.1697 59.2451 28.2406 59.7067 28.2406C60.0287 28.2406 60.3507 28.2133 60.6727 28.1588C60.9947 28.0934 61.2416 28.0443 61.4134 28.0115L62.4921 33.1983C62.1487 33.3074 61.6656 33.4328 61.0431 33.5746C60.4205 33.7273 59.6637 33.82 58.7728 33.8527C57.1198 33.9182 55.6707 33.6946 54.4255 33.1819C53.1911 32.6692 52.2304 31.873 51.5434 30.7931C50.8565 29.7132 50.5183 28.3497 50.5291 26.7026V2.35611Z" fill="white"/>
<path d="M66.5094 33.5091V8.37729H73.1591V12.7623H73.4167C73.8675 11.2024 74.6243 10.0244 75.6869 9.22811C76.7496 8.42092 77.9733 8.01733 79.358 8.01733C79.7015 8.01733 80.0718 8.03914 80.4689 8.08277C80.8661 8.12641 81.215 8.1864 81.5155 8.26275V14.4475C81.1935 14.3494 80.748 14.2621 80.1791 14.1858C79.6102 14.1094 79.0896 14.0712 78.6173 14.0712C77.6083 14.0712 76.7067 14.2948 75.9124 14.7421C75.1288 15.1784 74.5062 15.7892 74.0446 16.5746C73.5938 17.36 73.3684 18.2653 73.3684 19.2907V33.5091H66.5094Z" fill="white"/>
<path d="M91.4056 33.9836C89.8277 33.9836 88.4215 33.7055 87.1871 33.1492C85.9527 32.582 84.9759 31.7475 84.2567 30.6458C83.5483 29.5332 83.194 28.1479 83.194 26.4899C83.194 25.0937 83.4463 23.9211 83.9508 22.9721C84.4553 22.0231 85.1423 21.2595 86.0117 20.6814C86.8812 20.1033 87.8687 19.667 88.9743 19.3725C90.0907 19.078 91.2607 18.8707 92.4843 18.7507C93.9227 18.598 95.082 18.4562 95.9622 18.3253C96.8424 18.1835 97.481 17.9763 97.8782 17.7036C98.2753 17.4309 98.4739 17.0273 98.4739 16.4928V16.3946C98.4739 15.3584 98.1519 14.5566 97.5079 13.9894C96.8746 13.4222 95.9729 13.1386 94.8029 13.1386C93.5685 13.1386 92.5863 13.4167 91.8564 13.9731C91.1265 14.5184 90.6435 15.2056 90.4073 16.0346L84.0635 15.5111C84.3855 13.984 85.0188 12.6641 85.9634 11.5515C86.908 10.428 88.1263 9.56625 89.6184 8.96631C91.1211 8.35547 92.86 8.05005 94.8351 8.05005C96.209 8.05005 97.524 8.21367 98.7798 8.5409C100.046 8.86814 101.168 9.37536 102.145 10.0626C103.132 10.7498 103.911 11.6333 104.48 12.7132C105.049 13.7822 105.333 15.0638 105.333 16.5582V33.5091H98.8282V30.0241H98.6349C98.2378 30.8094 97.7064 31.5021 97.0409 32.102C96.3754 32.691 95.5757 33.1546 94.6419 33.4928C93.708 33.82 92.6292 33.9836 91.4056 33.9836ZM93.3699 29.1732C94.3789 29.1732 95.2698 28.9714 96.0427 28.5679C96.8155 28.1534 97.422 27.597 97.8621 26.8989C98.3022 26.2008 98.5222 25.41 98.5222 24.5265V21.8595C98.3075 22.0013 98.0124 22.1322 97.6367 22.2522C97.2717 22.3612 96.8585 22.4649 96.3969 22.563C95.9353 22.6503 95.4738 22.7321 95.0122 22.8085C94.5506 22.8739 94.132 22.9339 93.7563 22.9885C92.9513 23.1084 92.2482 23.2993 91.6471 23.5611C91.046 23.8229 90.5791 24.1774 90.2463 24.6246C89.9135 25.061 89.7472 25.6064 89.7472 26.2608C89.7472 27.2098 90.0853 27.9352 90.7615 28.437C91.4485 28.9278 92.318 29.1732 93.3699 29.1732Z" fill="white"/>
<path d="M117.513 18.9798V33.5091H110.654V8.37729H117.191V12.8114H117.481C118.029 11.3497 118.946 10.1935 120.234 9.34264C121.523 8.48091 123.084 8.05005 124.92 8.05005C126.637 8.05005 128.135 8.43183 129.412 9.19538C130.689 9.95893 131.682 11.0497 132.391 12.4678C133.099 13.8749 133.453 15.5547 133.453 17.5072V33.5091H126.594V18.7507C126.605 17.2127 126.219 16.0128 125.435 15.1511C124.652 14.2785 123.573 13.8422 122.199 13.8422C121.276 13.8422 120.46 14.044 119.751 14.4475C119.054 14.8511 118.506 15.4402 118.109 16.2146C117.723 16.9782 117.524 17.8999 117.513 18.9798Z" fill="white"/>
<path d="M159.436 15.5438L153.157 15.9365C153.05 15.3911 152.819 14.9002 152.465 14.4639C152.111 14.0167 151.644 13.6622 151.064 13.4004C150.495 13.1277 149.813 12.9913 149.019 12.9913C147.956 12.9913 147.06 13.2204 146.33 13.6785C145.6 14.1258 145.235 14.7257 145.235 15.4783C145.235 16.0783 145.472 16.5855 145.944 17C146.416 17.4145 147.227 17.7472 148.375 17.9981L152.851 18.9143C155.256 19.4161 157.048 20.2233 158.229 21.3359C159.41 22.4485 160 23.9102 160 25.7209C160 27.368 159.522 28.8133 158.567 30.0568C157.622 31.3003 156.324 32.2711 154.671 32.9692C153.028 33.6564 151.134 34 148.987 34C145.713 34 143.105 33.3073 141.162 31.922C139.23 30.5258 138.097 28.6278 137.764 26.2281L144.511 25.8681C144.715 26.8826 145.209 27.657 145.992 28.1915C146.776 28.7151 147.779 28.9769 149.003 28.9769C150.205 28.9769 151.171 28.7424 151.901 28.2733C152.642 27.7934 153.018 27.1771 153.028 26.4244C153.018 25.7918 152.755 25.2737 152.239 24.8701C151.724 24.4556 150.93 24.1392 149.856 23.9211L145.573 23.0539C143.158 22.563 141.36 21.7122 140.18 20.5014C139.01 19.2907 138.425 17.7472 138.425 15.871C138.425 14.2567 138.854 12.8659 139.713 11.6987C140.582 10.5316 141.8 9.6317 143.368 8.99904C144.946 8.36638 146.792 8.05005 148.906 8.05005C152.03 8.05005 154.488 8.72089 156.281 10.0626C158.084 11.4042 159.136 13.2313 159.436 15.5438Z" fill="white"/>
</svg>
